<?xml version="1.0" standalone="no"?>
<!DOCTYPE svg PUBLIC "-//W3C//DTD SVG 20010904//EN"
 "http://www.w3.org/TR/2001/REC-SVG-20010904/DTD/svg10.dtd">
<svg version="1.0" xmlns="http://www.w3.org/2000/svg"
 width="1000.000000pt" height="1000.000000pt" viewBox="0 0 1000.000000 1000.000000"
 preserveAspectRatio="xMidYMid meet">

<g transform="translate(0.000000,1000.000000) scale(0.100000,-0.100000)"
fill="#000000" stroke="none">
<path d="M4665 9503 c-16 -2 -104 -13 -195 -24 -936 -114 -1790 -511 -2500
-1160 -248 -228 -482 -504 -684 -809 -141 -212 -191 -297 -292 -500 -171 -344
-293 -695 -373 -1080 -34 -167 -81 -474 -81 -536 l0 -41 267 -108 c259 -105
1034 -425 1742 -721 214 -90 357 -144 378 -144 22 0 68 18 128 50 177 96 322
136 533 149 119 7 124 8 151 37 16 16 197 277 403 579 488 717 597 880 619
931 11 25 25 98 34 180 20 178 38 263 85 405 254 767 1016 1242 1821 1135 325
-44 630 -181 873 -394 273 -238 475 -592 558 -973 30 -142 33 -462 4 -614
-136 -736 -758 -1320 -1476 -1385 -231 -21 -221 -17 -515 -226 -1134 -811
-1194 -855 -1215 -898 -11 -23 -20 -59 -20 -79 0 -71 -30 -266 -55 -353 -59
-209 -204 -435 -369 -573 -269 -226 -565 -333 -883 -318 -537 24 -976 361
-1158 890 -24 69 -46 114 -63 130 -46 43 -1692 728 -1692 705 0 -9 129 -364
172 -472 67 -171 242 -516 345 -682 184 -294 383 -543 633 -794 557 -559 1201
-940 1940 -1149 387 -110 762 -163 1199 -168 261 -4 303 -2 495 22 551 68 995
196 1461 419 700 336 1336 893 1782 1561 357 534 611 1192 702 1820 36 246 44
344 48 647 4 256 2 321 -17 480 -91 796 -320 1436 -735 2063 -382 576 -911
1074 -1495 1410 -531 305 -1150 510 -1705 565 -60 6 -143 15 -183 20 -68 9
-601 12 -667 3z"/>
<path d="M6335 7289 c-157 -18 -371 -101 -503 -196 -501 -357 -630 -1037 -296
-1552 69 -104 202 -244 298 -310 199 -137 402 -201 635 -201 193 0 335 33 500
115 474 238 724 784 592 1297 -143 554 -663 913 -1226 847z m303 -295 c261
-54 475 -217 592 -451 135 -271 115 -601 -51 -844 -131 -191 -317 -319 -531
-364 -106 -23 -274 -20 -373 5 -303 77 -534 309 -616 615 -17 62 -21 109 -21
210 0 101 4 148 21 210 74 278 273 496 534 586 46 16 107 33 137 38 88 14 225
12 308 -5z"/>
<path d="M3530 4259 c-61 -10 -177 -47 -184 -58 -3 -4 118 -58 267 -120 325
-135 377 -163 469 -249 106 -100 168 -202 204 -332 24 -88 24 -271 0 -360
-118 -437 -559 -636 -996 -449 -169 72 -480 197 -480 193 0 -15 55 -108 94
-161 90 -119 208 -212 360 -284 240 -112 533 -112 779 -1 471 214 684 799 467
1279 -83 182 -247 351 -430 443 -176 88 -384 126 -550 99z"/>
</g>
</svg>
